<svg width="190" height="22" viewBox="0 0 190 22" fill="none" xmlns="http://www.w3.org/2000/svg">
<path d="M182.543 6.048C184.914 6.048 186.631 6.43067 187.695 7.196C188.759 7.94267 189.291 8.904 189.291 10.08C189.291 10.4347 189.254 10.7613 189.179 11.06C188.899 12.292 188.115 13.1787 186.827 13.72C185.558 14.2427 184.055 14.504 182.319 14.504C181.442 14.504 180.62 14.448 179.855 14.336C179.836 15.3067 180.098 15.988 180.639 16.38C181.18 16.772 181.936 16.968 182.907 16.968C183.355 16.968 183.784 16.9213 184.195 16.828C184.606 16.716 185.128 16.5573 185.763 16.352C186.286 16.1653 186.64 16.072 186.827 16.072C187.032 16.072 187.135 16.1933 187.135 16.436C187.154 17.0893 186.911 17.78 186.407 18.508C185.903 19.2173 185.156 19.824 184.167 20.328C183.178 20.832 181.983 21.084 180.583 21.084C178.511 21.084 176.812 20.5613 175.487 19.516C174.162 18.4707 173.499 16.9493 173.499 14.952C173.499 14.392 173.574 13.7387 173.723 12.992C174.19 10.696 175.207 8.96933 176.775 7.812C178.362 6.636 180.284 6.048 182.543 6.048ZM180.051 12.656C180.126 12.6747 180.228 12.684 180.359 12.684C181.143 12.684 181.74 12.32 182.151 11.592C182.562 10.864 182.758 10.052 182.739 9.156C182.72 8.63333 182.571 8.372 182.291 8.372C182.086 8.372 181.843 8.54 181.563 8.876C181.283 9.19334 181.003 9.67867 180.723 10.332C180.462 10.9853 180.238 11.76 180.051 12.656Z" fill="#EF4444"/>
<path d="M171.139 17.136C171.102 17.2107 171.083 17.3227 171.083 17.472C171.083 17.6027 171.111 17.7053 171.167 17.78C171.242 17.8547 171.335 17.892 171.447 17.892C171.671 17.892 171.858 17.7987 172.007 17.612C172.175 17.4067 172.287 17.304 172.343 17.304C172.437 17.304 172.511 17.3693 172.567 17.5C172.623 17.612 172.651 17.752 172.651 17.92C172.67 18.4613 172.493 18.9933 172.119 19.516C171.746 20.02 171.195 20.44 170.467 20.776C169.758 21.0933 168.899 21.252 167.891 21.252C166.659 21.252 165.679 20.972 164.951 20.412C164.223 19.8333 163.85 19.068 163.831 18.116C163.831 17.4253 163.999 16.6507 164.335 15.792L165.875 11.76C165.969 11.5173 166.015 11.3213 166.015 11.172C166.015 10.9293 165.931 10.7427 165.763 10.612C165.614 10.4627 165.427 10.388 165.203 10.388C164.886 10.388 164.559 10.528 164.223 10.808C163.887 11.088 163.589 11.5267 163.327 12.124L161.787 17.136C161.75 17.2107 161.731 17.3227 161.731 17.472C161.731 17.6027 161.759 17.7053 161.815 17.78C161.89 17.8547 161.983 17.892 162.095 17.892C162.319 17.892 162.506 17.7987 162.655 17.612C162.823 17.4067 162.935 17.304 162.991 17.304C163.085 17.304 163.159 17.3693 163.215 17.5C163.271 17.612 163.299 17.752 163.299 17.92C163.318 18.4613 163.141 18.9933 162.767 19.516C162.394 20.02 161.843 20.44 161.115 20.776C160.406 21.0933 159.547 21.252 158.539 21.252C157.307 21.252 156.327 20.972 155.599 20.412C154.871 19.8333 154.498 19.068 154.479 18.116C154.479 17.4253 154.647 16.6507 154.983 15.792L156.523 11.76C156.617 11.5173 156.663 11.3213 156.663 11.172C156.663 10.9293 156.579 10.7427 156.411 10.612C156.262 10.4627 156.075 10.388 155.851 10.388C155.534 10.388 155.207 10.528 154.871 10.808C154.535 11.0693 154.255 11.4987 154.031 12.096L152.183 18.088C152.109 18.2933 152.071 18.4893 152.071 18.676C152.071 18.9 152.118 19.0867 152.211 19.236C152.305 19.3667 152.435 19.5067 152.603 19.656C152.734 19.768 152.827 19.8707 152.883 19.964C152.939 20.0573 152.949 20.1693 152.911 20.3C152.837 20.5427 152.659 20.72 152.379 20.832C152.099 20.944 151.661 21 151.063 21H144.679C144.194 21 143.849 20.9253 143.643 20.776C143.419 20.608 143.335 20.3933 143.391 20.132C143.466 19.908 143.662 19.712 143.979 19.544C144.259 19.3947 144.493 19.2173 144.679 19.012C144.866 18.8067 145.025 18.48 145.155 18.032L147.647 9.94C147.685 9.84667 147.703 9.716 147.703 9.548C147.703 9.34267 147.657 9.184 147.563 9.072C147.489 8.96 147.358 8.82 147.171 8.652C146.985 8.50267 146.854 8.372 146.779 8.26C146.705 8.148 146.695 7.99867 146.751 7.812C146.863 7.38267 147.451 7.00934 148.515 6.692C149.579 6.356 150.69 6.188 151.847 6.188C152.762 6.188 153.481 6.44 154.003 6.944C154.545 7.448 154.806 8.13867 154.787 9.016C155.553 7.952 156.355 7.21467 157.195 6.804C158.054 6.39333 158.978 6.188 159.967 6.188C161.05 6.188 161.927 6.50534 162.599 7.14C163.29 7.756 163.673 8.568 163.747 9.576C164.55 8.30667 165.409 7.42934 166.323 6.944C167.238 6.44 168.237 6.188 169.319 6.188C170.458 6.188 171.373 6.53334 172.063 7.224C172.773 7.91467 173.127 8.81067 173.127 9.912C173.127 10.4907 173.034 11.06 172.847 11.62L171.139 17.136Z" fill="#EF4444"/>
<path d="M142.421 6.188C143.504 6.188 144.297 6.39333 144.801 6.804C145.305 7.21467 145.557 7.77467 145.557 8.484C145.557 8.91333 145.492 9.324 145.361 9.716L142.785 18.088C142.729 18.312 142.701 18.508 142.701 18.676C142.701 18.9187 142.748 19.1147 142.841 19.264C142.935 19.3947 143.065 19.5253 143.233 19.656C143.364 19.7867 143.457 19.8987 143.513 19.992C143.569 20.0667 143.579 20.1693 143.541 20.3C143.448 20.5427 143.261 20.72 142.981 20.832C142.701 20.944 142.272 21 141.693 21H135.309C134.824 21 134.469 20.9253 134.245 20.776C134.021 20.608 133.947 20.3933 134.021 20.132C134.096 19.908 134.292 19.712 134.609 19.544C134.889 19.3947 135.123 19.2173 135.309 19.012C135.496 18.8067 135.655 18.48 135.785 18.032L138.221 9.94C138.277 9.772 138.305 9.632 138.305 9.52C138.305 9.31467 138.259 9.156 138.165 9.044C138.072 8.91333 137.932 8.78267 137.745 8.652C137.559 8.50267 137.428 8.372 137.353 8.26C137.279 8.148 137.269 7.99867 137.325 7.812C137.437 7.38267 138.025 7.00934 139.089 6.692C140.153 6.356 141.264 6.188 142.421 6.188ZM144.297 0C145.025 0 145.632 0.242667 146.117 0.728001C146.603 1.19467 146.845 1.77333 146.845 2.464C146.845 2.94933 146.715 3.42533 146.453 3.892C146.211 4.35867 145.856 4.74133 145.389 5.04C144.941 5.32 144.437 5.46 143.877 5.46C143.168 5.46 142.571 5.22667 142.085 4.76C141.619 4.27467 141.376 3.67733 141.357 2.968C141.357 2.50133 141.479 2.044 141.721 1.596C141.964 1.12933 142.309 0.746667 142.757 0.448001C143.205 0.149334 143.719 0 144.297 0Z" fill="#EF4444"/>
<path d="M137.039 2.352C138.066 2.352 138.579 2.772 138.579 3.612C138.579 3.87333 138.523 4.2 138.411 4.592L137.739 6.86C137.534 7.55067 137.282 8.036 136.983 8.316C136.685 8.596 136.255 8.736 135.695 8.736C135.229 8.736 134.865 8.61467 134.603 8.372C134.361 8.12933 134.127 7.74667 133.903 7.224L133.427 6.076C133.278 5.72133 133.119 5.47867 132.951 5.348C132.783 5.21733 132.522 5.152 132.167 5.152H131.523L127.967 17.668C127.911 17.9107 127.883 18.1253 127.883 18.312C127.883 18.536 127.911 18.7227 127.967 18.872C128.042 19.0213 128.145 19.18 128.275 19.348C128.443 19.6093 128.527 19.824 128.527 19.992C128.527 20.0293 128.509 20.1227 128.471 20.272C128.378 20.5147 128.191 20.692 127.911 20.804C127.65 20.916 127.267 20.972 126.763 20.972H120.183C119.791 20.972 119.483 20.9067 119.259 20.776C119.054 20.6453 118.951 20.4587 118.951 20.216C118.951 20.104 118.979 19.992 119.035 19.88C119.11 19.712 119.194 19.5907 119.287 19.516C119.399 19.4227 119.558 19.3107 119.763 19.18C120.043 19.012 120.277 18.8253 120.463 18.62C120.65 18.4147 120.809 18.0973 120.939 17.668L124.467 5.152H123.823C123.413 5.152 123.077 5.21733 122.815 5.348C122.554 5.47867 122.274 5.72133 121.975 6.076L121.051 7.224C120.622 7.728 120.202 8.11067 119.791 8.372C119.399 8.61467 118.97 8.736 118.503 8.736C118.074 8.736 117.738 8.624 117.495 8.4C117.253 8.176 117.131 7.868 117.131 7.476C117.131 7.28933 117.159 7.084 117.215 6.86L117.943 4.312C118.093 3.78933 118.261 3.39733 118.447 3.136C118.634 2.856 118.895 2.66 119.231 2.548C119.586 2.41733 120.081 2.352 120.715 2.352H137.039Z" fill="#EF4444"/>
<path d="M111.09 6.552C111.445 6.552 111.716 6.62667 111.902 6.776C112.108 6.92533 112.21 7.13067 112.21 7.392C112.21 7.46667 112.192 7.59733 112.154 7.784C111.912 8.60533 111.352 9.016 110.474 9.016H108.85L106.75 15.932C106.657 16.212 106.61 16.5013 106.61 16.8C106.61 17.136 106.704 17.3693 106.89 17.5C107.077 17.6307 107.338 17.696 107.674 17.696C107.973 17.696 108.346 17.6587 108.794 17.584C109.018 17.528 109.214 17.5 109.382 17.5C109.513 17.5 109.606 17.5467 109.662 17.64C109.737 17.7147 109.774 17.8173 109.774 17.948C109.793 18.3213 109.513 18.7787 108.934 19.32C108.374 19.8427 107.609 20.3 106.638 20.692C105.668 21.0653 104.594 21.252 103.418 21.252C102.149 21.252 101.132 20.9627 100.366 20.384C99.6011 19.8053 99.2185 19.012 99.2185 18.004C99.2185 17.5373 99.2931 17.0893 99.4425 16.66L101.234 11.116C101.328 10.7987 101.374 10.5467 101.374 10.36C101.374 9.98667 101.281 9.66933 101.094 9.408C100.926 9.14667 100.684 8.876 100.366 8.596C100.086 8.33467 99.8905 8.12 99.7785 7.952C99.6665 7.76534 99.6385 7.55067 99.6945 7.308C99.7691 7.06533 99.9278 6.87867 100.17 6.748C100.413 6.61733 100.796 6.552 101.318 6.552H102.886L104.65 4.788C105.266 4.172 105.826 3.74267 106.33 3.5C106.853 3.25734 107.525 3.136 108.346 3.136C109.522 3.136 110.11 3.584 110.11 4.48C110.11 4.76 110.073 5.02133 109.998 5.264L109.606 6.552H111.09Z" fill="#EF4444"/>
<path d="M96.9076 6.188C97.953 6.188 98.7836 6.50534 99.3996 7.14C100.034 7.77467 100.352 8.55867 100.352 9.492C100.352 9.84667 100.314 10.1733 100.24 10.472C100.053 11.2373 99.6983 11.8253 99.1756 12.236C98.653 12.6467 98.0276 12.852 97.2996 12.852C96.5903 12.852 96.049 12.684 95.6756 12.348C95.321 12.012 95.0036 11.564 94.7236 11.004C94.5743 10.6867 94.4343 10.4533 94.3036 10.304C94.173 10.1547 94.0236 10.08 93.8556 10.08C93.669 10.08 93.501 10.1547 93.3516 10.304C93.221 10.4533 93.0996 10.7147 92.9876 11.088L90.8316 18.088C90.7943 18.1813 90.7756 18.3213 90.7756 18.508C90.7756 18.7507 90.841 18.956 90.9716 19.124C91.121 19.2733 91.317 19.4227 91.5596 19.572C91.7836 19.7213 91.933 19.8427 92.0076 19.936C92.0823 20.0293 92.1103 20.1507 92.0916 20.3C92.0543 20.5427 91.9143 20.72 91.6716 20.832C91.4476 20.944 91.0556 21 90.4956 21H83.3276C82.8423 21 82.497 20.9253 82.2916 20.776C82.0676 20.608 81.9836 20.3933 82.0396 20.132C82.1143 19.908 82.3103 19.712 82.6276 19.544C82.9076 19.3947 83.141 19.2173 83.3276 19.012C83.5143 18.8067 83.673 18.48 83.8036 18.032L86.2956 9.94C86.333 9.84667 86.3516 9.716 86.3516 9.548C86.3516 9.34267 86.305 9.184 86.2116 9.072C86.137 8.96 86.0063 8.82 85.8196 8.652C85.633 8.50267 85.5023 8.372 85.4276 8.26C85.353 8.148 85.3436 7.99867 85.3996 7.812C85.5116 7.38267 86.0996 7.00934 87.1636 6.692C88.2276 6.356 89.3383 6.188 90.4956 6.188C91.261 6.188 91.8956 6.36533 92.3996 6.72C92.9036 7.056 93.2303 7.54134 93.3796 8.176C94.2756 6.85067 95.4516 6.188 96.9076 6.188Z" fill="#EF4444"/>
<path d="M77.7837 6.048C80.1543 6.048 81.8717 6.43067 82.9357 7.196C83.9997 7.94267 84.5317 8.904 84.5317 10.08C84.5317 10.4347 84.4943 10.7613 84.4197 11.06C84.1397 12.292 83.3557 13.1787 82.0677 13.72C80.7983 14.2427 79.2957 14.504 77.5597 14.504C76.6823 14.504 75.861 14.448 75.0957 14.336C75.077 15.3067 75.3383 15.988 75.8797 16.38C76.421 16.772 77.177 16.968 78.1477 16.968C78.5957 16.968 79.025 16.9213 79.4357 16.828C79.8463 16.716 80.369 16.5573 81.0037 16.352C81.5263 16.1653 81.881 16.072 82.0677 16.072C82.273 16.072 82.3757 16.1933 82.3757 16.436C82.3943 17.0893 82.1517 17.78 81.6477 18.508C81.1437 19.2173 80.397 19.824 79.4077 20.328C78.4183 20.832 77.2237 21.084 75.8237 21.084C73.7517 21.084 72.053 20.5613 70.7277 19.516C69.4023 18.4707 68.7397 16.9493 68.7397 14.952C68.7397 14.392 68.8143 13.7387 68.9637 12.992C69.4303 10.696 70.4477 8.96933 72.0157 7.812C73.6023 6.636 75.525 6.048 77.7837 6.048ZM75.2917 12.656C75.3663 12.6747 75.469 12.684 75.5997 12.684C76.3837 12.684 76.981 12.32 77.3917 11.592C77.8023 10.864 77.9983 10.052 77.9797 9.156C77.961 8.63333 77.8117 8.372 77.5317 8.372C77.3263 8.372 77.0837 8.54 76.8037 8.876C76.5237 9.19334 76.2437 9.67867 75.9637 10.332C75.7023 10.9853 75.4783 11.76 75.2917 12.656Z" fill="#EF4444"/>
<path d="M61.706 5.936C63.2553 5.936 64.59 6.076 65.71 6.356C66.8487 6.636 67.7167 7.028 68.314 7.532C68.93 8.036 69.238 8.60533 69.238 9.24C69.238 9.89333 68.9767 10.4253 68.454 10.836C67.95 11.2467 67.2407 11.452 66.326 11.452C65.3927 11.452 64.5993 11.2187 63.946 10.752C63.3113 10.2853 62.994 9.69733 62.994 8.988C62.994 8.74533 63.0313 8.512 63.106 8.288C62.77 8.19467 62.4713 8.148 62.21 8.148C61.7433 8.148 61.3513 8.26 61.034 8.484C60.7353 8.708 60.5953 9.02533 60.614 9.436C60.614 9.92133 60.8567 10.332 61.342 10.668C61.8273 11.004 62.6113 11.424 63.694 11.928C64.6273 12.3387 65.3927 12.7213 65.99 13.076C66.606 13.412 67.1193 13.8413 67.53 14.364C67.9593 14.8867 68.174 15.5027 68.174 16.212C68.174 16.3613 68.1367 16.6413 68.062 17.052C67.7633 18.3027 66.9327 19.292 65.57 20.02C64.2073 20.748 62.4153 21.112 60.194 21.112C57.6927 21.112 55.7047 20.776 54.23 20.104C52.774 19.432 52.046 18.508 52.046 17.332C52.046 16.5293 52.2887 15.9227 52.774 15.512C53.2593 15.1013 53.9033 14.896 54.706 14.896C55.6393 14.896 56.4327 15.1853 57.086 15.764C57.758 16.3427 58.094 17.08 58.094 17.976C58.094 18.2187 58.066 18.4707 58.01 18.732C58.458 18.844 58.8873 18.9 59.298 18.9C59.7833 18.9 60.1847 18.7693 60.502 18.508C60.8193 18.2467 60.978 17.8827 60.978 17.416C60.9593 16.9867 60.7447 16.6227 60.334 16.324C59.9233 16.0067 59.27 15.6333 58.374 15.204C57.534 14.812 56.8433 14.448 56.302 14.112C55.7607 13.7573 55.294 13.3187 54.902 12.796C54.5287 12.2733 54.342 11.6573 54.342 10.948C54.342 9.41733 54.9767 8.204 56.246 7.308C57.534 6.39333 59.354 5.936 61.706 5.936Z" fill="#EF4444"/>
<path d="M45.9084 5.936C47.4577 5.936 48.7924 6.076 49.9124 6.356C51.051 6.636 51.919 7.028 52.5164 7.532C53.1324 8.036 53.4404 8.60533 53.4404 9.24C53.4404 9.89333 53.179 10.4253 52.6564 10.836C52.1524 11.2467 51.443 11.452 50.5284 11.452C49.595 11.452 48.8017 11.2187 48.1484 10.752C47.5137 10.2853 47.1964 9.69733 47.1964 8.988C47.1964 8.74533 47.2337 8.512 47.3084 8.288C46.9724 8.19467 46.6737 8.148 46.4124 8.148C45.9457 8.148 45.5537 8.26 45.2364 8.484C44.9377 8.708 44.7977 9.02533 44.8164 9.436C44.8164 9.92133 45.059 10.332 45.5444 10.668C46.0297 11.004 46.8137 11.424 47.8964 11.928C48.8297 12.3387 49.595 12.7213 50.1924 13.076C50.8084 13.412 51.3217 13.8413 51.7324 14.364C52.1617 14.8867 52.3764 15.5027 52.3764 16.212C52.3764 16.3613 52.339 16.6413 52.2644 17.052C51.9657 18.3027 51.135 19.292 49.7724 20.02C48.4097 20.748 46.6177 21.112 44.3964 21.112C41.895 21.112 39.907 20.776 38.4324 20.104C36.9764 19.432 36.2484 18.508 36.2484 17.332C36.2484 16.5293 36.491 15.9227 36.9764 15.512C37.4617 15.1013 38.1057 14.896 38.9084 14.896C39.8417 14.896 40.635 15.1853 41.2884 15.764C41.9604 16.3427 42.2964 17.08 42.2964 17.976C42.2964 18.2187 42.2684 18.4707 42.2124 18.732C42.6604 18.844 43.0897 18.9 43.5004 18.9C43.9857 18.9 44.387 18.7693 44.7044 18.508C45.0217 18.2467 45.1804 17.8827 45.1804 17.416C45.1617 16.9867 44.947 16.6227 44.5364 16.324C44.1257 16.0067 43.4724 15.6333 42.5764 15.204C41.7364 14.812 41.0457 14.448 40.5044 14.112C39.963 13.7573 39.4964 13.3187 39.1044 12.796C38.731 12.2733 38.5444 11.6573 38.5444 10.948C38.5444 9.41733 39.179 8.204 40.4484 7.308C41.7364 6.39333 43.5564 5.936 45.9084 5.936Z" fill="#EF4444"/>
<path d="M31.3204 6.048C33.6911 6.048 35.4084 6.43067 36.4724 7.196C37.5364 7.94267 38.0684 8.904 38.0684 10.08C38.0684 10.4347 38.0311 10.7613 37.9564 11.06C37.6764 12.292 36.8924 13.1787 35.6044 13.72C34.3351 14.2427 32.8324 14.504 31.0964 14.504C30.2191 14.504 29.3977 14.448 28.6324 14.336C28.6137 15.3067 28.8751 15.988 29.4164 16.38C29.9577 16.772 30.7137 16.968 31.6844 16.968C32.1324 16.968 32.5617 16.9213 32.9724 16.828C33.3831 16.716 33.9057 16.5573 34.5404 16.352C35.0631 16.1653 35.4177 16.072 35.6044 16.072C35.8097 16.072 35.9124 16.1933 35.9124 16.436C35.9311 17.0893 35.6884 17.78 35.1844 18.508C34.6804 19.2173 33.9337 19.824 32.9444 20.328C31.9551 20.832 30.7604 21.084 29.3604 21.084C27.2884 21.084 25.5897 20.5613 24.2644 19.516C22.9391 18.4707 22.2764 16.9493 22.2764 14.952C22.2764 14.392 22.3511 13.7387 22.5004 12.992C22.9671 10.696 23.9844 8.96933 25.5524 7.812C27.1391 6.636 29.0617 6.048 31.3204 6.048ZM28.8284 12.656C28.9031 12.6747 29.0057 12.684 29.1364 12.684C29.9204 12.684 30.5177 12.32 30.9284 11.592C31.3391 10.864 31.5351 10.052 31.5164 9.156C31.4977 8.63333 31.3484 8.372 31.0684 8.372C30.8631 8.372 30.6204 8.54 30.3404 8.876C30.0604 9.19334 29.7804 9.67867 29.5004 10.332C29.2391 10.9853 29.0151 11.76 28.8284 12.656Z" fill="#EF4444"/>
<path d="M14.4115 2.352C17.2115 2.352 19.3208 2.89333 20.7395 3.976C22.1582 5.04 22.8675 6.608 22.8675 8.68C22.8675 9.70667 22.6808 10.892 22.3075 12.236C21.6915 14.4013 20.8608 16.1187 19.8155 17.388C18.7702 18.6573 17.3888 19.5813 15.6715 20.16C13.9728 20.7387 11.7888 21.0187 9.11948 21L1.50348 20.972C1.11148 20.972 0.812818 20.9067 0.607484 20.776C0.383484 20.6453 0.271484 20.468 0.271484 20.244C0.271484 20.132 0.299484 20.0107 0.355484 19.88C0.411484 19.712 0.495484 19.5907 0.607484 19.516C0.700818 19.4413 0.850151 19.3387 1.05548 19.208C1.35415 19.04 1.58748 18.8533 1.75548 18.648C1.94215 18.4427 2.10082 18.116 2.23148 17.668L5.64748 5.628C5.72215 5.38533 5.75948 5.152 5.75948 4.928C5.75948 4.72267 5.72215 4.55467 5.64748 4.424C5.59148 4.27467 5.50748 4.10667 5.39548 3.92C5.22748 3.67733 5.14348 3.48133 5.14348 3.332C5.14348 3.276 5.16215 3.17333 5.19948 3.024C5.27415 2.78133 5.43282 2.61333 5.67548 2.52C5.93682 2.408 6.32882 2.352 6.85148 2.352H14.4115ZM15.1395 11.62C15.6248 9.86533 15.8675 8.484 15.8675 7.476C15.8675 6.48667 15.6622 5.80533 15.2515 5.432C14.8408 5.05867 14.2528 4.872 13.4875 4.872H12.8715L9.09148 18.48H9.76348C10.6222 18.48 11.3408 18.3027 11.9195 17.948C12.5168 17.5747 13.0675 16.9027 13.5715 15.932C14.0755 14.9427 14.5982 13.5053 15.1395 11.62Z" fill="#EF4444"/>
</svg>
