<svg width="171" height="65" viewBox="0 0 171 65" fill="none" xmlns="http://www.w3.org/2000/svg">
<path d="M37.853 3.688C41.053 3.688 43.4637 4.30667 45.085 5.544C46.7063 6.76 47.517 8.552 47.517 10.92C47.517 12.0933 47.3037 13.448 46.877 14.984C46.173 17.4587 45.2237 19.4213 44.029 20.872C42.8343 22.3227 41.2557 23.3787 39.293 24.04C37.3517 24.7013 34.8557 25.0213 31.805 25L23.101 24.968C22.653 24.968 22.3117 24.8933 22.077 24.744C21.821 24.5947 21.693 24.392 21.693 24.136C21.693 24.008 21.725 23.8693 21.789 23.72C21.853 23.528 21.949 23.3893 22.077 23.304C22.1837 23.2187 22.3543 23.1013 22.589 22.952C22.9303 22.76 23.197 22.5467 23.389 22.312C23.6023 22.0773 23.7837 21.704 23.933 21.192L27.837 7.432C27.9223 7.15467 27.965 6.888 27.965 6.632C27.965 6.39733 27.9223 6.20533 27.837 6.056C27.773 5.88533 27.677 5.69333 27.549 5.48C27.357 5.20267 27.261 4.97867 27.261 4.808C27.261 4.744 27.2823 4.62667 27.325 4.456C27.4103 4.17867 27.5917 3.98667 27.869 3.88C28.1677 3.752 28.6157 3.688 29.213 3.688H37.853ZM38.685 14.28C39.2397 12.2747 39.517 10.696 39.517 9.544C39.517 8.41333 39.2823 7.63467 38.813 7.208C38.3437 6.78133 37.6717 6.568 36.797 6.568H36.093L31.773 22.12H32.541C33.5223 22.12 34.3437 21.9173 35.005 21.512C35.6877 21.0853 36.317 20.3173 36.893 19.208C37.469 18.0773 38.0663 16.4347 38.685 14.28ZM57.2918 7.912C60.0011 7.912 61.9638 8.34933 63.1798 9.224C64.3958 10.0773 65.0038 11.176 65.0038 12.52C65.0038 12.9253 64.9611 13.2987 64.8758 13.64C64.5558 15.048 63.6598 16.0613 62.1878 16.68C60.7371 17.2773 59.0198 17.576 57.0358 17.576C56.0331 17.576 55.0944 17.512 54.2198 17.384C54.1984 18.4933 54.4971 19.272 55.1158 19.72C55.7344 20.168 56.5984 20.392 57.7078 20.392C58.2198 20.392 58.7104 20.3387 59.1798 20.232C59.6491 20.104 60.2464 19.9227 60.9718 19.688C61.5691 19.4747 61.9744 19.368 62.1878 19.368C62.4224 19.368 62.5398 19.5067 62.5398 19.784C62.5611 20.5307 62.2838 21.32 61.7078 22.152C61.1318 22.9627 60.2784 23.656 59.1478 24.232C58.0171 24.808 56.6518 25.096 55.0518 25.096C52.6838 25.096 50.7424 24.4987 49.2278 23.304C47.7131 22.1093 46.9558 20.3707 46.9558 18.088C46.9558 17.448 47.0411 16.7013 47.2118 15.848C47.7451 13.224 48.9078 11.2507 50.6998 9.928C52.5131 8.584 54.7104 7.912 57.2918 7.912ZM54.4438 15.464C54.5291 15.4853 54.6464 15.496 54.7958 15.496C55.6918 15.496 56.3744 15.08 56.8438 14.248C57.3131 13.416 57.5371 12.488 57.5158 11.464C57.4944 10.8667 57.3238 10.568 57.0038 10.568C56.7691 10.568 56.4918 10.76 56.1718 11.144C55.8518 11.5067 55.5318 12.0613 55.2118 12.808C54.9131 13.5547 54.6571 14.44 54.4438 15.464ZM74.078 7.784C75.8487 7.784 77.374 7.944 78.654 8.264C79.9553 8.584 80.9473 9.032 81.63 9.608C82.334 10.184 82.686 10.8347 82.686 11.56C82.686 12.3067 82.3873 12.9147 81.79 13.384C81.214 13.8533 80.4033 14.088 79.358 14.088C78.2913 14.088 77.3847 13.8213 76.638 13.288C75.9127 12.7547 75.55 12.0827 75.55 11.272C75.55 10.9947 75.5927 10.728 75.678 10.472C75.294 10.3653 74.9527 10.312 74.654 10.312C74.1207 10.312 73.6727 10.44 73.31 10.696C72.9687 10.952 72.8087 11.3147 72.83 11.784C72.83 12.3387 73.1073 12.808 73.662 13.192C74.2167 13.576 75.1127 14.056 76.35 14.632C77.4167 15.1013 78.2913 15.5387 78.974 15.944C79.678 16.328 80.2647 16.8187 80.734 17.416C81.2247 18.0133 81.47 18.7173 81.47 19.528C81.47 19.6987 81.4273 20.0187 81.342 20.488C81.0007 21.9173 80.0513 23.048 78.494 23.88C76.9367 24.712 74.8887 25.128 72.35 25.128C69.4913 25.128 67.2193 24.744 65.534 23.976C63.87 23.208 63.038 22.152 63.038 20.808C63.038 19.8907 63.3153 19.1973 63.87 18.728C64.4247 18.2587 65.1607 18.024 66.078 18.024C67.1447 18.024 68.0513 18.3547 68.798 19.016C69.566 19.6773 69.95 20.52 69.95 21.544C69.95 21.8213 69.918 22.1093 69.854 22.408C70.366 22.536 70.8567 22.6 71.326 22.6C71.8807 22.6 72.3393 22.4507 72.702 22.152C73.0647 21.8533 73.246 21.4373 73.246 20.904C73.2247 20.4133 72.9793 19.9973 72.51 19.656C72.0407 19.2933 71.294 18.8667 70.27 18.376C69.31 17.928 68.5207 17.512 67.902 17.128C67.2833 16.7227 66.75 16.2213 66.302 15.624C65.8753 15.0267 65.662 14.3227 65.662 13.512C65.662 11.7627 66.3873 10.376 67.838 9.352C69.31 8.30667 71.39 7.784 74.078 7.784ZM92.2468 7.784C94.0174 7.784 95.5428 7.944 96.8228 8.264C98.1241 8.584 99.1161 9.032 99.7987 9.608C100.503 10.184 100.855 10.8347 100.855 11.56C100.855 12.3067 100.556 12.9147 99.9588 13.384C99.3828 13.8533 98.5721 14.088 97.5268 14.088C96.4601 14.088 95.5534 13.8213 94.8068 13.288C94.0814 12.7547 93.7188 12.0827 93.7188 11.272C93.7188 10.9947 93.7614 10.728 93.8468 10.472C93.4628 10.3653 93.1214 10.312 92.8228 10.312C92.2894 10.312 91.8414 10.44 91.4788 10.696C91.1374 10.952 90.9774 11.3147 90.9988 11.784C90.9988 12.3387 91.2761 12.808 91.8308 13.192C92.3854 13.576 93.2814 14.056 94.5188 14.632C95.5854 15.1013 96.4601 15.5387 97.1428 15.944C97.8468 16.328 98.4334 16.8187 98.9028 17.416C99.3934 18.0133 99.6388 18.7173 99.6388 19.528C99.6388 19.6987 99.5961 20.0187 99.5108 20.488C99.1694 21.9173 98.2201 23.048 96.6628 23.88C95.1054 24.712 93.0574 25.128 90.5188 25.128C87.6601 25.128 85.3881 24.744 83.7028 23.976C82.0388 23.208 81.2067 22.152 81.2067 20.808C81.2067 19.8907 81.4841 19.1973 82.0388 18.728C82.5934 18.2587 83.3294 18.024 84.2468 18.024C85.3134 18.024 86.2201 18.3547 86.9668 19.016C87.7348 19.6773 88.1188 20.52 88.1188 21.544C88.1188 21.8213 88.0868 22.1093 88.0228 22.408C88.5348 22.536 89.0254 22.6 89.4948 22.6C90.0494 22.6 90.5081 22.4507 90.8708 22.152C91.2334 21.8533 91.4148 21.4373 91.4148 20.904C91.3934 20.4133 91.1481 19.9973 90.6788 19.656C90.2094 19.2933 89.4628 18.8667 88.4388 18.376C87.4788 17.928 86.6894 17.512 86.0708 17.128C85.4521 16.7227 84.9188 16.2213 84.4708 15.624C84.0441 15.0267 83.8307 14.3227 83.8307 13.512C83.8307 11.7627 84.5561 10.376 86.0068 9.352C87.4788 8.30667 89.5588 7.784 92.2468 7.784ZM110.736 7.912C113.445 7.912 115.408 8.34933 116.624 9.224C117.84 10.0773 118.448 11.176 118.448 12.52C118.448 12.9253 118.405 13.2987 118.32 13.64C118 15.048 117.104 16.0613 115.632 16.68C114.181 17.2773 112.464 17.576 110.48 17.576C109.477 17.576 108.538 17.512 107.664 17.384C107.642 18.4933 107.941 19.272 108.56 19.72C109.178 20.168 110.042 20.392 111.152 20.392C111.664 20.392 112.154 20.3387 112.624 20.232C113.093 20.104 113.69 19.9227 114.416 19.688C115.013 19.4747 115.418 19.368 115.632 19.368C115.866 19.368 115.984 19.5067 115.984 19.784C116.005 20.5307 115.728 21.32 115.152 22.152C114.576 22.9627 113.722 23.656 112.592 24.232C111.461 24.808 110.096 25.096 108.496 25.096C106.128 25.096 104.186 24.4987 102.672 23.304C101.157 22.1093 100.4 20.3707 100.4 18.088C100.4 17.448 100.485 16.7013 100.656 15.848C101.189 13.224 102.352 11.2507 104.144 9.928C105.957 8.584 108.154 7.912 110.736 7.912ZM107.888 15.464C107.973 15.4853 108.09 15.496 108.24 15.496C109.136 15.496 109.818 15.08 110.288 14.248C110.757 13.416 110.981 12.488 110.96 11.464C110.938 10.8667 110.768 10.568 110.448 10.568C110.213 10.568 109.936 10.76 109.616 11.144C109.296 11.5067 108.976 12.0613 108.656 12.808C108.357 13.5547 108.101 14.44 107.888 15.464ZM132.706 8.072C133.9 8.072 134.85 8.43467 135.554 9.16C136.279 9.88533 136.642 10.7813 136.642 11.848C136.642 12.2533 136.599 12.6267 136.514 12.968C136.3 13.8427 135.895 14.5147 135.298 14.984C134.7 15.4533 133.986 15.688 133.154 15.688C132.343 15.688 131.724 15.496 131.298 15.112C130.892 14.728 130.53 14.216 130.21 13.576C130.039 13.2133 129.879 12.9467 129.73 12.776C129.58 12.6053 129.41 12.52 129.218 12.52C129.004 12.52 128.812 12.6053 128.642 12.776C128.492 12.9467 128.354 13.2453 128.226 13.672L125.762 21.672C125.719 21.7787 125.698 21.9387 125.698 22.152C125.698 22.4293 125.772 22.664 125.922 22.856C126.092 23.0267 126.316 23.1973 126.594 23.368C126.85 23.5387 127.02 23.6773 127.106 23.784C127.191 23.8907 127.223 24.0293 127.202 24.2C127.159 24.4773 126.999 24.68 126.722 24.808C126.466 24.936 126.018 25 125.378 25H117.186C116.631 25 116.236 24.9147 116.002 24.744C115.746 24.552 115.65 24.3067 115.714 24.008C115.799 23.752 116.023 23.528 116.386 23.336C116.706 23.1653 116.972 22.9627 117.186 22.728C117.399 22.4933 117.58 22.12 117.73 21.608L120.578 12.36C120.62 12.2533 120.642 12.104 120.642 11.912C120.642 11.6773 120.588 11.496 120.482 11.368C120.396 11.24 120.247 11.08 120.034 10.888C119.82 10.7173 119.671 10.568 119.586 10.44C119.5 10.312 119.49 10.1413 119.554 9.928C119.682 9.43733 120.354 9.01067 121.57 8.648C122.786 8.264 124.055 8.072 125.378 8.072C126.252 8.072 126.978 8.27467 127.554 8.68C128.13 9.064 128.503 9.61867 128.674 10.344C129.698 8.82933 131.042 8.072 132.706 8.072ZM149.029 8.488C149.434 8.488 149.744 8.57333 149.957 8.744C150.192 8.91467 150.309 9.14933 150.309 9.448C150.309 9.53333 150.288 9.68267 150.245 9.896C149.968 10.8347 149.328 11.304 148.325 11.304H146.469L144.069 19.208C143.962 19.528 143.909 19.8587 143.909 20.2C143.909 20.584 144.016 20.8507 144.229 21C144.442 21.1493 144.741 21.224 145.125 21.224C145.466 21.224 145.893 21.1813 146.405 21.096C146.661 21.032 146.885 21 147.077 21C147.226 21 147.333 21.0533 147.397 21.16C147.482 21.2453 147.525 21.3627 147.525 21.512C147.546 21.9387 147.226 22.4613 146.565 23.08C145.925 23.6773 145.05 24.2 143.941 24.648C142.832 25.0747 141.605 25.288 140.261 25.288C138.81 25.288 137.648 24.9573 136.773 24.296C135.898 23.6347 135.461 22.728 135.461 21.576C135.461 21.0427 135.546 20.5307 135.717 20.04L137.765 13.704C137.872 13.3413 137.925 13.0533 137.925 12.84C137.925 12.4133 137.818 12.0507 137.605 11.752C137.413 11.4533 137.136 11.144 136.773 10.824C136.453 10.5253 136.229 10.28 136.101 10.088C135.973 9.87467 135.941 9.62933 136.005 9.352C136.09 9.07467 136.272 8.86133 136.549 8.712C136.826 8.56267 137.264 8.488 137.861 8.488H139.653L141.669 6.472C142.373 5.768 143.013 5.27733 143.589 5C144.186 4.72267 144.954 4.584 145.893 4.584C147.237 4.584 147.909 5.096 147.909 6.12C147.909 6.44 147.866 6.73867 147.781 7.016L147.333 8.488H149.029Z" fill="#EF4444"/>
<path d="M155.769 63.8602C150.936 63.4517 147.327 59.2298 147.732 54.4427C148.136 49.6557 152.396 46.0989 157.236 46.5079C162.075 46.9169 165.677 51.1383 165.273 55.9253C164.868 60.7123 160.608 64.2692 155.769 63.8602ZM157.038 48.846C153.501 48.5471 150.384 51.1494 150.089 54.6478C149.793 58.1463 152.429 61.2348 155.966 61.5337C159.502 61.8326 162.619 59.2303 162.915 55.7319C163.21 52.2334 160.574 49.1449 157.038 48.846Z" fill="#EF4444"/>
<path d="M158.151 50.9247L155.834 50.447C155.894 50.1585 157.372 43.3481 162.71 41.1625L163.619 43.3241C159.425 45.0426 158.167 50.8673 158.156 50.9252L158.151 50.9247Z" fill="#EF4444"/>
<path d="M156.195 54.33C155.151 54.2419 154.05 54.0019 153.115 53.4708L154.29 51.4384C155.854 52.3222 158.563 52.011 159.476 51.818L159.977 54.1036C159.868 54.1296 158.128 54.4876 156.195 54.3242L156.195 54.33Z" fill="#EF4444"/>
<path d="M55.5699 31.032C57.3299 31.032 58.2099 31.752 58.2099 33.192C58.2099 33.64 58.1139 34.2 57.9219 34.872L56.7699 38.76C56.4179 39.944 55.9859 40.776 55.4739 41.256C54.9619 41.736 54.2259 41.976 53.2659 41.976C52.4659 41.976 51.8419 41.768 51.3939 41.352C50.9779 40.936 50.5779 40.28 50.1939 39.384L49.3779 37.416C49.1219 36.808 48.8499 36.392 48.5619 36.168C48.2739 35.944 47.8259 35.832 47.2179 35.832H46.1139L40.0179 57.288C39.9219 57.704 39.8739 58.072 39.8739 58.392C39.8739 58.776 39.9219 59.096 40.0179 59.352C40.1459 59.608 40.3219 59.88 40.5459 60.168C40.8339 60.616 40.9779 60.984 40.9779 61.272C40.9779 61.336 40.9459 61.496 40.8819 61.752C40.7219 62.168 40.4019 62.472 39.9219 62.664C39.4739 62.856 38.8179 62.952 37.9539 62.952H26.6739C26.0019 62.952 25.4739 62.84 25.0899 62.616C24.7379 62.392 24.5619 62.072 24.5619 61.656C24.5619 61.464 24.6099 61.272 24.7059 61.08C24.8339 60.792 24.9779 60.584 25.1379 60.456C25.3299 60.296 25.6019 60.104 25.9539 59.88C26.4339 59.592 26.8339 59.272 27.1539 58.92C27.4739 58.568 27.7459 58.024 27.9699 57.288L34.0179 35.832H32.9139C32.2099 35.832 31.6339 35.944 31.1859 36.168C30.7379 36.392 30.2579 36.808 29.7459 37.416L28.1619 39.384C27.4259 40.248 26.7059 40.904 26.0019 41.352C25.3299 41.768 24.5939 41.976 23.7939 41.976C23.0579 41.976 22.4819 41.784 22.0659 41.4C21.6499 41.016 21.4419 40.488 21.4419 39.816C21.4419 39.496 21.4899 39.144 21.5859 38.76L22.8339 34.392C23.0899 33.496 23.3779 32.824 23.6979 32.376C24.0179 31.896 24.4659 31.56 25.0419 31.368C25.6499 31.144 26.4979 31.032 27.5859 31.032H55.5699ZM65.3677 37.608C67.2237 37.608 68.5837 37.96 69.4477 38.664C70.3117 39.368 70.7437 40.328 70.7437 41.544C70.7437 42.28 70.6317 42.984 70.4077 43.656L65.9917 58.008C65.8957 58.392 65.8477 58.728 65.8477 59.016C65.8477 59.432 65.9277 59.768 66.0877 60.024C66.2477 60.248 66.4717 60.472 66.7597 60.696C66.9837 60.92 67.1437 61.112 67.2397 61.272C67.3357 61.4 67.3517 61.576 67.2877 61.8C67.1277 62.216 66.8077 62.52 66.3277 62.712C65.8477 62.904 65.1117 63 64.1197 63H53.1757C52.3437 63 51.7357 62.872 51.3517 62.616C50.9677 62.328 50.8397 61.96 50.9677 61.512C51.0957 61.128 51.4317 60.792 51.9757 60.504C52.4557 60.248 52.8557 59.944 53.1757 59.592C53.4957 59.24 53.7677 58.68 53.9917 57.912L58.1677 44.04C58.2637 43.752 58.3117 43.512 58.3117 43.32C58.3117 42.968 58.2317 42.696 58.0717 42.504C57.9117 42.28 57.6717 42.056 57.3517 41.832C57.0317 41.576 56.8077 41.352 56.6797 41.16C56.5517 40.968 56.5357 40.712 56.6317 40.392C56.8237 39.656 57.8317 39.016 59.6557 38.472C61.4797 37.896 63.3837 37.608 65.3677 37.608ZM68.5837 27C69.8317 27 70.8717 27.416 71.7037 28.248C72.5357 29.048 72.9517 30.04 72.9517 31.224C72.9517 32.056 72.7277 32.872 72.2797 33.672C71.8637 34.472 71.2557 35.128 70.4557 35.64C69.6877 36.12 68.8237 36.36 67.8637 36.36C66.6477 36.36 65.6237 35.96 64.7917 35.16C63.9917 34.328 63.5757 33.304 63.5437 32.088C63.5437 31.288 63.7517 30.504 64.1677 29.736C64.5837 28.936 65.1757 28.28 65.9437 27.768C66.7117 27.256 67.5917 27 68.5837 27ZM115.17 56.376C115.106 56.504 115.074 56.696 115.074 56.952C115.074 57.176 115.122 57.352 115.218 57.48C115.346 57.608 115.506 57.672 115.698 57.672C116.082 57.672 116.402 57.512 116.658 57.192C116.946 56.84 117.138 56.664 117.234 56.664C117.394 56.664 117.522 56.776 117.618 57C117.714 57.192 117.762 57.432 117.762 57.72C117.794 58.648 117.49 59.56 116.85 60.456C116.21 61.32 115.266 62.04 114.018 62.616C112.802 63.16 111.33 63.432 109.602 63.432C107.49 63.432 105.81 62.952 104.562 61.992C103.314 61 102.674 59.688 102.642 58.056C102.642 56.872 102.93 55.544 103.506 54.072L106.146 47.16C106.306 46.744 106.386 46.408 106.386 46.152C106.386 45.736 106.242 45.416 105.954 45.192C105.698 44.936 105.378 44.808 104.994 44.808C104.45 44.808 103.89 45.048 103.314 45.528C102.738 46.008 102.226 46.76 101.778 47.784L99.1379 56.376C99.0739 56.504 99.0419 56.696 99.0419 56.952C99.0419 57.176 99.0899 57.352 99.1859 57.48C99.3139 57.608 99.4739 57.672 99.6659 57.672C100.05 57.672 100.37 57.512 100.626 57.192C100.914 56.84 101.106 56.664 101.202 56.664C101.362 56.664 101.49 56.776 101.586 57C101.682 57.192 101.73 57.432 101.73 57.72C101.762 58.648 101.458 59.56 100.818 60.456C100.178 61.32 99.2339 62.04 97.9859 62.616C96.7699 63.16 95.2979 63.432 93.5699 63.432C91.4579 63.432 89.7779 62.952 88.5299 61.992C87.2819 61 86.6419 59.688 86.6099 58.056C86.6099 56.872 86.8979 55.544 87.4739 54.072L90.1139 47.16C90.2739 46.744 90.3539 46.408 90.3539 46.152C90.3539 45.736 90.2099 45.416 89.9219 45.192C89.6659 44.936 89.3459 44.808 88.9619 44.808C88.4179 44.808 87.8579 45.048 87.2819 45.528C86.7059 45.976 86.2259 46.712 85.8419 47.736L82.6739 58.008C82.5459 58.36 82.4819 58.696 82.4819 59.016C82.4819 59.4 82.5619 59.72 82.7219 59.976C82.8819 60.2 83.1059 60.44 83.3939 60.696C83.6179 60.888 83.7779 61.064 83.8739 61.224C83.9699 61.384 83.9859 61.576 83.9219 61.8C83.7939 62.216 83.4899 62.52 83.0099 62.712C82.5299 62.904 81.7779 63 80.7539 63H69.8099C68.9779 63 68.3859 62.872 68.0339 62.616C67.6499 62.328 67.5059 61.96 67.6019 61.512C67.7299 61.128 68.0659 60.792 68.6099 60.504C69.0899 60.248 69.4899 59.944 69.8099 59.592C70.1299 59.24 70.4019 58.68 70.6259 57.912L74.8979 44.04C74.9619 43.88 74.9939 43.656 74.9939 43.368C74.9939 43.016 74.9139 42.744 74.7539 42.552C74.6259 42.36 74.4019 42.12 74.0819 41.832C73.7619 41.576 73.5379 41.352 73.4099 41.16C73.2819 40.968 73.2659 40.712 73.3619 40.392C73.5539 39.656 74.5619 39.016 76.3859 38.472C78.2099 37.896 80.1139 37.608 82.0979 37.608C83.6659 37.608 84.8979 38.04 85.7939 38.904C86.7219 39.768 87.1699 40.952 87.1379 42.456C88.4499 40.632 89.8259 39.368 91.2659 38.664C92.7379 37.96 94.3219 37.608 96.0179 37.608C97.8739 37.608 99.3779 38.152 100.53 39.24C101.714 40.296 102.37 41.688 102.498 43.416C103.874 41.24 105.346 39.736 106.914 38.904C108.482 38.04 110.194 37.608 112.05 37.608C114.002 37.608 115.57 38.2 116.754 39.384C117.97 40.568 118.578 42.104 118.578 43.992C118.578 44.984 118.418 45.96 118.098 46.92L115.17 56.376ZM135.291 37.368C139.355 37.368 142.299 38.024 144.123 39.336C145.947 40.616 146.859 42.264 146.859 44.28C146.859 44.888 146.795 45.448 146.667 45.96C146.187 48.072 144.843 49.592 142.635 50.52C140.459 51.416 137.883 51.864 134.907 51.864C133.403 51.864 131.995 51.768 130.683 51.576C130.651 53.24 131.099 54.408 132.027 55.08C132.955 55.752 134.251 56.088 135.915 56.088C136.683 56.088 137.419 56.008 138.123 55.848C138.827 55.656 139.723 55.384 140.811 55.032C141.707 54.712 142.315 54.552 142.635 54.552C142.987 54.552 143.163 54.76 143.163 55.176C143.195 56.296 142.779 57.48 141.915 58.728C141.051 59.944 139.771 60.984 138.075 61.848C136.379 62.712 134.331 63.144 131.931 63.144C128.379 63.144 125.467 62.248 123.195 60.456C120.923 58.664 119.787 56.056 119.787 52.632C119.787 51.672 119.915 50.552 120.171 49.272C120.971 45.336 122.715 42.376 125.403 40.392C128.123 38.376 131.419 37.368 135.291 37.368ZM131.019 48.696C131.147 48.728 131.323 48.744 131.547 48.744C132.891 48.744 133.915 48.12 134.619 46.872C135.323 45.624 135.659 44.232 135.627 42.696C135.595 41.8 135.339 41.352 134.859 41.352C134.507 41.352 134.091 41.64 133.611 42.216C133.131 42.76 132.651 43.592 132.171 44.712C131.723 45.832 131.339 47.16 131.019 48.696Z" fill="#EF4444"/>
</svg>
