<svg width="217" height="120" viewBox="0 0 217 120" fill="none" xmlns="http://www.w3.org/2000/svg">
<g clip-path="url(#clip0_257_8919)">
<path d="M27.5036 0.251709C34.9725 0.251709 41.8862 4.93292 43.9048 11.5772H43.8543C44.4599 13.1376 44.6618 14.547 44.6618 15.9564C44.6618 18.6745 43.7534 21.3423 42.189 23.8591H42.2395C40.4732 26.8792 37.8995 29.1947 34.7202 30.6544C32.1969 31.9128 28.9671 33.1208 25.9392 34.2282C25.0813 34.5806 24.4253 34.5806 23.7188 34.5806C22.8608 34.5806 22.4571 34.5302 21.902 34.4799C20.3881 34.1275 19.3788 33.0202 19.3788 31.7618C19.3788 31.1577 19.6311 30.453 20.1862 29.7484C20.6404 29.1443 20.6404 28.2886 20.4385 27.5839C19.732 23.9094 19.076 19.9833 18.6218 16.3088C18.3695 14.3457 18.1171 12.3826 17.9153 10.4698L17.6629 7.55037C17.6125 6.94634 17.562 6.14097 17.562 5.68795C17.562 1.91278 19.0255 0.8054 23.7188 0.503387L27.5036 0.251709ZM27.0495 26.9296C29.3204 26.1745 31.2381 25.2685 32.8025 24.1611C34.1146 23.1544 35.4771 21.896 36.335 20.688C37.4453 19.2282 38.0004 17.6175 38.0004 15.9564C38.0004 14.6477 37.6471 13.339 36.8397 11.9799C34.9725 9.16111 31.7427 6.84567 27.655 6.84567C26.7971 6.84567 25.586 7.04701 24.3748 7.34902C24.5767 8.80876 24.6271 10.2685 24.829 11.6779C24.829 12.4833 24.829 13.2383 25.0308 14.0437C25.4346 18.3222 25.8383 22.7014 27.0999 26.9799L27.0495 26.9296ZM26.6457 28.49C27.0495 28.7416 27.5541 28.3893 27.4027 27.8859L27.2008 27.3826C27.2008 27.3826 26.999 27.0806 26.6962 27.0806L26.3934 27.1812C25.7878 27.1812 25.6364 27.7349 26.0906 28.0873L26.6962 28.4396L26.6457 28.49Z" fill="#D31111"/>
<path d="M54.5026 17.9196C54.5026 22.4498 58.237 26.0236 62.5265 26.0236C63.1826 26.0236 63.8891 25.9733 64.6965 25.7719C66.16 25.3692 67.3712 24.8659 68.7337 24.2618L69.9449 23.7082C70.5505 23.4565 71.2065 23.3558 71.7617 23.3558C72.8214 23.3558 73.6289 23.8088 74.2344 24.7149C75.0419 26.0739 74.84 28.0874 73.1747 29.1947C69.6926 31.5102 66.16 32.6175 62.6779 32.6175C56.2184 32.6175 50.4654 28.339 48.2954 21.6947C47.7907 20.1847 47.5889 18.6243 47.5889 16.9632C47.5889 8.70815 53.7456 1.35916 62.2237 0.100772C63.6872 -0.0502351 65.2012 0.000100447 66.5133 0.352449C69.6926 1.20815 72.2158 3.07057 72.8214 6.7954C73.427 10.2182 71.7617 13.8424 68.6833 15.6041C67.8254 16.1075 66.917 16.5102 65.9077 16.6612C63.3844 17.0135 60.7098 17.2652 58.1361 17.5169L55.2091 17.8189H55.31C54.9063 17.9196 54.7549 17.8692 54.5531 17.8692H54.5026V17.9196ZM55.8147 11.678C55.8147 11.678 55.9156 11.3759 56.067 11.1243L55.411 10.9733L55.7642 11.678H55.8147ZM56.067 11.1243C56.7231 11.1746 57.4296 11.2249 58.1361 11.2249C60.6593 11.2249 63.6872 10.8222 64.8479 10.2182C65.8572 9.71486 66.3619 8.80883 66.3114 7.90278C66.16 7.19809 65.3021 6.59406 64.0405 6.44305C61.164 6.19138 57.6819 8.30547 56.067 11.1243Z" fill="#D31111"/>
<path d="M87.7085 36.7954L85.9927 36.6444C84.8824 36.4934 83.7722 36.443 82.9648 36.141C81.9555 35.9397 81.148 35.386 80.3406 34.782C78.978 33.7752 78.7762 32.0638 79.4322 30.7048C80.2397 29.245 81.7031 28.641 83.3685 29.245C84.9329 29.9497 86.4973 30.3524 88.1627 30.1007C89.0206 30.0504 89.9794 30.0001 90.7869 29.5974H90.7364C91.241 29.245 91.8971 28.641 91.8971 28.188C91.8971 27.5336 91.342 26.7786 90.8878 26.3256C90.4336 26.0739 89.7776 25.8222 89.172 25.6209L88.4655 25.3692C87.7085 25.0169 86.901 24.7148 86.0936 24.4632C84.832 23.9598 83.5199 23.5571 82.8638 23.1544C79.6845 21.594 78.1201 18.9766 78.1201 16.2081C78.1201 14.3457 78.978 12.2316 80.6434 10.3692C82.8134 8.20477 87.002 6.5437 90.6355 6.5437C91.8971 6.5437 93.0073 6.69471 94.0166 7.14773C94.7231 7.39941 95.3287 7.85243 95.8838 8.40612C96.7417 9.21149 97.2464 10.3692 96.439 11.5269H96.4894C96.0857 12.3323 95.1269 12.9363 94.3194 13.2887C93.6634 13.4397 93.0073 13.3893 92.3513 13.2383C92.099 13.188 91.8466 13.1377 91.7962 13.1377C89.828 12.886 87.8599 13.1377 86.1945 14.1947H86.245C85.589 14.6981 84.8824 15.4531 84.832 16.2585C84.7815 16.6108 85.6394 17.2148 86.3459 17.6175H86.2955C87.2543 18.1209 88.1122 18.4229 88.9197 18.6746C89.7271 18.9766 91.1906 19.4296 91.0897 19.4296C91.1906 19.5303 91.2915 19.5806 91.342 19.5806C92.6036 20.084 93.7138 20.4867 94.6222 20.99C97.4987 22.8524 98.609 25.7216 98.4071 28.943C98.0034 32.1142 96.1362 34.4296 93.4111 35.537C92.099 36.141 90.7364 36.292 89.5757 36.4934L87.8599 36.745H87.658L87.7085 36.7954Z" fill="#D31111"/>
<path d="M111.326 36.7954L109.61 36.6444C108.5 36.4934 107.39 36.443 106.582 36.141C105.573 35.9397 104.766 35.386 103.958 34.782C102.596 33.7752 102.394 32.0638 103.05 30.7048C103.857 29.245 105.321 28.641 106.986 29.245C108.551 29.9497 110.115 30.3524 111.78 30.1007C112.638 30.0504 113.597 30.0001 114.405 29.5974H114.354C114.859 29.245 115.515 28.641 115.515 28.188C115.515 27.5336 114.96 26.7786 114.505 26.3256C114.051 26.0739 113.395 25.8222 112.79 25.6209L112.083 25.3692C111.326 25.0169 110.519 24.7148 109.711 24.4632C108.45 23.9598 107.138 23.5571 106.482 23.1544C103.302 21.594 101.738 18.9766 101.738 16.2081C101.738 14.3457 102.596 12.2316 104.261 10.3692C106.431 8.20477 110.62 6.5437 114.253 6.5437C115.515 6.5437 116.625 6.69471 117.634 7.14773C118.341 7.39941 118.946 7.85243 119.502 8.40612C120.359 9.21149 120.864 10.3692 120.057 11.5269H120.107C119.703 12.3323 118.745 12.9363 117.937 13.2887C117.281 13.4397 116.625 13.3893 115.969 13.2383C115.717 13.188 115.464 13.1377 115.414 13.1377C113.446 12.886 111.478 13.1377 109.812 14.1947H109.863C109.207 14.6981 108.5 15.4531 108.45 16.2585C108.399 16.6108 109.257 17.2148 109.964 17.6175H109.913C110.872 18.1209 111.73 18.4229 112.537 18.6746C113.345 18.9766 114.808 19.4296 114.707 19.4296C114.808 19.5303 114.909 19.5806 114.96 19.5806C116.221 20.084 117.332 20.4867 118.24 20.99C121.116 22.8524 122.227 25.7216 122.025 28.943C121.672 32.1142 119.754 34.4296 117.029 35.537C115.717 36.141 114.354 36.292 113.193 36.4934L111.478 36.745H111.276L111.326 36.7954Z" fill="#D31111"/>
<path d="M132.37 17.9196C132.37 22.4498 136.105 26.0236 140.394 26.0236C141.05 26.0236 141.757 25.9733 142.564 25.7719C144.028 25.3692 145.239 24.8659 146.601 24.2618L147.813 23.7082C148.418 23.4565 149.074 23.3558 149.629 23.3558C150.689 23.3558 151.497 23.8088 152.102 24.7149C152.91 26.0739 152.708 28.0874 151.042 29.1947C147.56 31.5102 144.028 32.6175 140.546 32.6175C134.086 32.6175 128.333 28.339 126.163 21.6947C125.658 20.1847 125.457 18.6243 125.457 16.9632C125.457 8.75849 131.664 1.4095 140.091 0.100772C141.555 -0.0502351 143.069 0.000100447 144.381 0.352449C147.56 1.20815 150.084 3.07057 150.689 6.7954C151.295 10.2182 149.629 13.8424 146.551 15.6041C145.693 16.1075 144.785 16.5102 143.775 16.6612C141.252 17.0135 138.577 17.2652 136.004 17.5169L133.077 17.8189H133.178C132.774 17.9196 132.623 17.8692 132.421 17.8692H132.37V17.9196ZM133.682 11.678C133.682 11.678 133.783 11.3759 133.935 11.1243L133.279 10.9733L133.632 11.678H133.682ZM133.935 11.1243C134.591 11.1746 135.297 11.2249 136.004 11.2249C138.527 11.2249 141.555 10.8222 142.716 10.2182C143.725 9.71486 144.23 8.80883 144.179 7.90278C144.028 7.19809 143.17 6.59406 141.908 6.44305C139.032 6.19138 135.55 8.30547 133.935 11.1243Z" fill="#D31111"/>
<path d="M163.255 14.8994C163.305 15.2517 163.255 15.5538 163.406 16.1578C165.374 13.641 167.948 11.9799 170.875 10.9732C172.339 10.3692 174.004 10.0168 175.568 10.0168C177.738 10.0672 178.95 11.9296 178.546 13.8424C178.142 15.1511 177.082 15.7551 176.023 16.1578H176.073C175.417 16.3591 174.761 16.5101 174.155 16.7115L172.339 17.3658H172.389C169.967 18.3222 168.251 20.084 167.343 22.6511C166.131 25.7719 165.627 28.9934 165.728 32.2652C165.778 33.5236 165.728 34.6309 165.526 35.6377C165.173 37.1477 164.113 37.9531 162.548 38.0034C161.085 38.0538 160.076 37.3491 159.47 36.0403C159.167 35.1846 158.915 34.3793 158.814 33.6746C157.906 26.1746 156.997 18.8256 156.139 11.2752C156.038 10.2182 156.089 9.06047 156.291 8.05376C156.644 6.59403 157.552 5.68799 159.218 5.68799C160.883 5.68799 161.791 6.64436 162.094 8.1041C162.347 9.41282 162.649 10.8222 162.851 12.1309L163.154 14.1444L163.305 15.0504L163.255 14.8994Z" fill="#D31111"/>
<path d="M190.657 19.6812C189.648 19.8323 188.487 19.8826 187.629 19.9329C186.721 19.9833 185.358 19.9329 184.5 19.7819C183.037 19.4296 182.128 18.4229 182.078 16.9128C181.927 15.3524 182.835 14.2953 184.298 13.8927C185.358 13.5403 186.468 13.5403 187.68 13.339C191.717 13.0873 191.616 13.1376 192.221 9.26178C192.373 8.40608 192.524 7.50004 192.928 6.594C193.735 5.08393 195.3 4.17789 196.814 4.53024C198.378 5.0336 199.135 6.19131 199.034 8.20474C198.984 9.26178 198.832 10.4195 198.681 11.6276L198.58 12.6846H199.943C201.053 12.6846 202.113 12.6343 203.172 12.6846C204.182 12.7349 205.292 12.8859 206.301 13.2886C207.613 13.8927 208.522 15.0504 208.118 16.3591C207.866 17.3155 207.109 18.2719 206.251 18.7752C205.595 19.2282 204.686 19.2282 203.828 19.2786H198.681C197.924 19.2786 197.571 19.5806 197.52 20.2853C197.52 20.6376 197.47 21.0403 197.47 21.443C197.419 22.4497 197.369 23.5068 197.419 24.5638C197.571 27.2819 199.186 28.7416 201.961 29.245C202.113 29.245 202.214 29.2953 202.415 29.2953C203.223 29.4464 204.081 29.547 204.686 30.0504C205.494 30.7047 206.251 31.8625 206.2 32.7182C206.15 33.7249 205.241 34.8323 204.434 35.2853C203.526 35.7383 202.214 35.839 201.154 35.6376C195.35 35.0336 191.313 30.151 190.859 24.4631V19.5806L190.657 19.6812Z" fill="#D31111"/>
<path d="M41.4825 69.161H41.1797V70.6207C41.2807 78.1711 41.4825 85.9227 41.7853 93.7247C41.8862 96.4429 41.8862 99.0603 42.189 101.778V102.181C42.4918 104.799 42.5928 107.617 42.6937 109.933V115.067C42.3909 117.886 40.776 119.497 37.6472 120C34.9221 120.403 32.6007 118.54 31.8437 116.225C31.1876 114.312 30.683 111.594 30.683 108.976C30.2793 103.943 30.0774 98.1543 30.0269 92.8187V90.9563C30.0269 90.3019 29.926 89.6979 29.926 88.9429C29.8251 87.2818 29.7242 84.765 29.7242 82.9529C29.7242 81.8959 29.6232 81.0402 29.6232 79.9328L29.4214 71.1241C29.4214 71.1241 29.4214 70.7214 29.3204 70.4697L27.2009 70.6711L22.8104 71.1744L18.9246 71.6778C16.6032 72.0804 13.6762 72.2818 11.3549 72.5335C8.73067 72.6341 6.10648 72.5335 3.88602 72.1308C1.21136 71.3757 -0.252124 68.4563 0.000201944 65.7382C0.504853 62.718 2.62439 61.359 5.3495 61.3086C6.61113 61.208 7.77183 61.1073 9.23532 60.8053L13.7772 60.3019L15.5435 60.1006H15.4425C20.3881 59.4462 25.5356 58.9429 30.4811 57.8858C36.0323 57.1308 41.6339 56.9294 47.4879 56.9294H56.3193C58.1865 56.9294 60.2051 57.2315 61.7695 57.8858H61.6686C64.2928 58.5402 65.8572 61.0066 65.5544 63.7751C65.2516 66.3925 63.1321 68.5066 59.9023 68.6073H47.4879C46.2262 68.6073 44.9646 68.708 43.5011 68.9093L41.4825 69.1106V69.161Z" fill="#D31111"/>
<path d="M81.0474 59.7483C77.0606 59.7483 73.8813 56.1745 73.8813 52.198C73.8813 48.2214 77.6662 44.7483 81.7539 44.7483C85.7407 44.849 88.6676 47.8691 88.6676 51.9966C88.6676 55.8725 85.0846 59.7483 81.0979 59.7483H81.0474ZM89.1218 93.5235C89.5255 98.4563 89.6265 103.893 89.8788 109.278C89.9797 111.04 89.7779 112.752 89.3741 114.513C88.5162 117.131 86.4472 118.49 83.7725 118.389C81.1483 118.087 79.5839 116.728 79.0288 114.312V114.413C78.5241 112.752 78.2718 111.04 78.1709 109.178C77.8681 97.953 77.7672 86.8288 77.5148 75.604C77.5148 74.547 77.6158 73.5906 77.8176 72.5839C78.4737 69.2114 80.3409 67.349 83.2679 67.2483C85.993 67.2483 88.1125 69.1107 88.819 72.2818C89.2227 74.1443 89.2227 76.2584 89.2227 78.0704V93.4731L89.1218 93.5235Z" fill="#D31111"/>
<path d="M146.601 77.4665C144.179 79.3289 143.119 81.6444 142.413 84.0605C141.151 88.6914 140.192 93.3726 139.133 98.1041C138.729 100.017 138.376 101.879 137.871 103.742C137.77 104.396 137.467 105 137.366 105.654C137.063 106.51 136.862 107.668 136.508 108.775V108.675C135.65 111.091 133.884 112.349 131.361 112.349C128.636 112.45 126.617 110.789 125.911 108.373H126.012C125.255 106.158 125.154 104.295 125.154 102.282C125.154 97.6511 125.255 92.9195 125.356 88.1377C125.356 86.2752 125.456 82.9028 125.456 81.0907C125.456 80.688 125.456 80.3356 125.356 80.0336C125.255 79.3793 125.154 78.8759 125.154 78.3726C125.053 77.6175 124.952 77.9699 124.952 77.2148C122.328 77.9699 121.369 79.5303 119.905 81.1914V81.0907C116.12 85.3692 114.657 90.5034 114.001 95.7887C113.597 98.6075 113.496 101.326 113.496 103.993V106.812C113.395 111.946 111.478 114.765 107.844 115.118C104.463 115.52 101.637 112.903 100.779 107.97C99.1137 97.5001 97.8521 87.1813 97.8521 76.3088C97.8521 74.094 97.953 71.9296 98.0539 69.7148C98.0539 68.4565 98.1548 66.6947 98.8109 65.2853V65.386C99.8707 62.7685 101.637 61.5101 104.16 61.6108C106.885 61.6108 109.005 63.3726 109.509 66.443C109.812 67.5001 109.711 68.9598 109.711 70.2182V72.5336C109.711 72.8356 109.812 73.188 109.913 73.8927V74.2954L111.478 72.735L114.001 70.8222C116.221 68.9598 118.846 67.1477 121.47 65.8893C123.135 65.0336 124.75 64.5303 126.516 64.5303C129.696 64.5303 132.623 66.5437 135.348 70.5202L135.852 71.3759L137.619 69.7148L139.637 68.1544C140.798 67.2987 142.059 66.292 143.22 65.6377C144.886 64.5806 146.702 64.1779 148.569 64.1779C152.758 64.1779 156.24 66.6947 157.502 71.4263C158.562 75.2014 158.965 79.3793 158.965 83.5068V86.5269C158.965 93.2216 158.864 100.067 158.562 106.762C158.461 107.819 158.36 108.675 158.158 109.178C157.098 111.896 155.433 113.708 152.809 113.809C149.781 113.809 148.065 112.349 147.358 109.732H147.459C146.854 108.071 146.601 106.56 146.601 105C146.601 103.842 146.702 102.685 146.702 101.426C146.803 96.896 147.005 92.4162 147.358 87.886C147.459 86.8289 147.459 85.3692 147.459 84.3122C147.459 82.0974 147.257 80.0336 146.601 77.4162V77.4665Z" fill="#D31111"/>
<path d="M180.666 88.2885C180.666 96.4429 187.378 102.886 195.149 102.886C196.31 102.886 197.572 102.785 199.035 102.382V102.483C201.659 101.627 203.88 100.721 206.302 99.6644L208.422 98.708C209.481 98.2047 210.642 98.0536 211.702 98.0536C213.619 98.0536 215.083 98.8087 216.143 100.47C217.606 102.886 217.202 106.56 214.225 108.523C207.917 112.701 201.609 114.715 195.301 114.715C183.643 114.715 173.298 106.963 169.412 95.0838C168.554 92.3657 168.15 89.5469 168.15 86.5771C168.15 71.7785 179.303 58.4899 194.544 56.1744C197.168 55.8724 199.893 55.9731 202.315 56.6778C208.018 58.2382 212.61 61.6107 213.67 68.3053V68.2046C214.73 74.4966 211.752 80.9899 206.201 84.161C204.637 85.0167 203.022 85.8221 201.155 86.0738C196.613 86.7281 191.718 87.1308 187.176 87.6342L181.927 88.2382L182.129 88.1375C181.473 88.4395 181.17 88.3389 180.767 88.3389H180.666V88.2885ZM182.987 77.0637C183.088 76.7617 183.189 76.4597 183.492 76.1073L182.331 75.8053L182.987 77.0637ZM183.492 76.1073C184.652 76.208 185.914 76.3087 187.176 76.3087C191.718 76.3087 197.168 75.5536 199.287 74.4463C201.155 73.5906 202.012 71.9295 201.912 70.2684C201.609 69.01 200.044 67.953 197.824 67.651C192.676 67.1476 186.368 71.0234 183.441 76.057L183.492 76.1073Z" fill="#D31111"/>
</g>
<defs>
<clipPath id="clip0_257_8919">
<rect width="217" height="120" fill="white"/>
</clipPath>
</defs>
</svg>
