<svg width="22" height="22" viewBox="0 0 22 22" fill="none" xmlns="http://www.w3.org/2000/svg">
<path d="M19.8667 21.5L12.5167 14.15C11.9333 14.6167 11.2625 14.9861 10.5042 15.2583C9.74583 15.5306 8.93889 15.6667 8.08333 15.6667C5.96389 15.6667 4.17014 14.9326 2.70208 13.4646C1.23403 11.9965 0.5 10.2028 0.5 8.08333C0.5 5.96389 1.23403 4.17014 2.70208 2.70208C4.17014 1.23403 5.96389 0.5 8.08333 0.5C10.2028 0.5 11.9965 1.23403 13.4646 2.70208C14.9326 4.17014 15.6667 5.96389 15.6667 8.08333C15.6667 8.93889 15.5306 9.74583 15.2583 10.5042C14.9861 11.2625 14.6167 11.9333 14.15 12.5167L21.5 19.8667L19.8667 21.5ZM8.08333 13.3333C9.54167 13.3333 10.7812 12.8229 11.8021 11.8021C12.8229 10.7812 13.3333 9.54167 13.3333 8.08333C13.3333 6.625 12.8229 5.38542 11.8021 4.36458C10.7812 3.34375 9.54167 2.83333 8.08333 2.83333C6.625 2.83333 5.38542 3.34375 4.36458 4.36458C3.34375 5.38542 2.83333 6.625 2.83333 8.08333C2.83333 9.54167 3.34375 10.7812 4.36458 11.8021C5.38542 12.8229 6.625 13.3333 8.08333 13.3333Z" fill="#B0B0B0"/>
</svg>
